<?xml version="1.0" ?><!DOCTYPE svg  PUBLIC '-//W3C//DTD SVG 1.1//EN'  'http://www.w3.org/Graphics/SVG/1.1/DTD/svg11.dtd'><svg enable-background="new 0 0 128 128" id="Слой_1" version="1.1" viewBox="0 0 128 128" xml:space="preserve" xmlns="http://www.w3.org/2000/svg" xmlns:xlink="http://www.w3.org/1999/xlink"><circle cx="64" cy="64" fill="#46B8BF" opacity="0.8" r="62"/><g><path d="M59.5,72h31.3l13.4,13.4V72c7.4,0,13.4-6,13.4-13.4V31.8c0-7.4-6-13.4-13.4-13.4H59.5   c-7.4,0-13.4,6-13.4,13.4v26.8C46.1,66,52.1,72,59.5,72z" fill="#DCCFE2"/><path d="   M104.2,24.6c3.9,0,7.2,3.2,7.2,7.2v26.8" fill="none" opacity="0.8" stroke="#FFFFFF" stroke-linecap="round" stroke-linejoin="round" stroke-miterlimit="10" stroke-width="5"/><path d="M68.5,32.6H52.4v-0.9c0-7.4,6-13.4,13.4-13.4h-6.3c-7.4,0-13.4,6-13.4,13.4v0.9v25.9   c0,7.4,6,13.4,13.4,13.4h6.3h25V55C90.8,42.7,80.8,32.6,68.5,32.6z" fill="#FDFDFE"/><path d="M68.5,95.2H37.2l-13.4,13.4V95.2c-7.4,0-13.4-6-13.4-13.4V55c0-7.4,6-13.4,13.4-13.4h44.7   c7.4,0,13.4,6,13.4,13.4v26.8C81.9,89.2,75.9,95.2,68.5,95.2z" fill="#EAEAEA"/><path d="M16.6,81.8V55c0-7.4,6-13.4,13.4-13.4h-6.3c-7.4,0-13.4,6-13.4,13.4v26.8c0,7.4,6,13.4,13.4,13.4   c0,0,1.8-0.6-0.1-1.6C19.5,91.4,16.6,86.9,16.6,81.8z" fill="#FDFDFE"/><path d="   M68.5,47.9c3.9,0,7.2,3.2,7.2,7.2v26.8" fill="none" opacity="0.8" stroke="#FFFFFF" stroke-linecap="round" stroke-linejoin="round" stroke-miterlimit="10" stroke-width="5"/><path d="M105.6,73.3c7.5-0.7,13.4-7,13.4-14.7V31.8c0-8.1-6.6-14.8-14.8-14.8H59.5c-8.1,0-14.8,6.6-14.8,14.8v8.5   h-21C15.6,40.2,9,46.9,9,55v26.8c0,7.7,5.9,14,13.4,14.7v12.1c0,0.5,0.3,1,0.8,1.2c0.2,0.1,0.3,0.1,0.5,0.1c0.3,0,0.7-0.1,0.9-0.4   l13-13h30.7c8.1,0,14.8-6.6,14.8-14.8v-8.5h7l13,13c0.3,0.3,0.6,0.4,0.9,0.4c0.2,0,0.3,0,0.5-0.1c0.5-0.2,0.8-0.7,0.8-1.2V73.3z    M80.5,81.8c0,6.7-5.4,12.1-12.1,12.1H37.2c-0.4,0-0.7,0.1-0.9,0.4l-11.1,11.1V95.2c0-0.7-0.6-1.3-1.3-1.3   c-6.7,0-12.1-5.4-12.1-12.1V55c0-6.7,5.4-12.1,12.1-12.1h44.7c6.7,0,12.1,5.4,12.1,12.1V81.8z M104.2,70.7c-0.7,0-1.3,0.6-1.3,1.3   v10.2L91.8,71c-0.3-0.3-0.6-0.4-0.9-0.4h-7.6V55c0-8.1-6.6-14.8-14.8-14.8h-21v-8.5c0-6.7,5.4-12.1,12.1-12.1h44.7   c6.7,0,12.1,5.4,12.1,12.1v26.8C116.3,65.2,110.9,70.7,104.2,70.7z" fill="#62345B"/><path d="M92.6,49.2h-4.5c-0.7,0-1.3,0.6-1.3,1.3s0.6,1.3,1.3,1.3h4.5c0.7,0,1.3-0.6,1.3-1.3S93.4,49.2,92.6,49.2z" fill="#62345B"/><path d="M89.1,35.3c-0.5-0.5-1.4-0.5-1.9,0l-4.5,4.5c-0.5,0.5-0.5,1.4,0,1.9c0.3,0.3,0.6,0.4,0.9,0.4   s0.7-0.1,0.9-0.4l4.5-4.5C89.6,36.6,89.6,35.8,89.1,35.3z" fill="#62345B"/><path d="M72.9,30.4c-0.7,0-1.3,0.6-1.3,1.3v4.5c0,0.7,0.6,1.3,1.3,1.3s1.3-0.6,1.3-1.3v-4.5   C74.3,31,73.7,30.4,72.9,30.4z" fill="#62345B"/><path d="M64,58.1H28.2c-0.7,0-1.3,0.6-1.3,1.3c0,0.7,0.6,1.3,1.3,1.3H64c0.7,0,1.3-0.6,1.3-1.3   C65.3,58.7,64.7,58.1,64,58.1z" fill="#62345B"/><path d="M64,67.1H28.2c-0.7,0-1.3,0.6-1.3,1.3s0.6,1.3,1.3,1.3H64c0.7,0,1.3-0.6,1.3-1.3S64.7,67.1,64,67.1z" fill="#62345B"/><path d="M41.6,76H28.2c-0.7,0-1.3,0.6-1.3,1.3s0.6,1.3,1.3,1.3h13.4c0.7,0,1.3-0.6,1.3-1.3S42.4,76,41.6,76z" fill="#62345B"/></g></svg>