<?xml version="1.0" ?><!DOCTYPE svg  PUBLIC '-//W3C//DTD SVG 1.1//EN'  'http://www.w3.org/Graphics/SVG/1.1/DTD/svg11.dtd'><svg enable-background="new 0 0 128 128" id="Layer_1" version="1.1" viewBox="0 0 128 128" xml:space="preserve" xmlns="http://www.w3.org/2000/svg" xmlns:xlink="http://www.w3.org/1999/xlink"><path d="M121,112c0,1.1-0.9,2-2,2H18c-1.1,0-2-0.9-2-2V33c0-1.1,0.9-2,2-2H119c1.1,0,2,0.9,2,2V112z" fill="#FFFFFF"/><path d="M121,112c0,1.1-0.9,2-2,2H18c-1.1,0-2-0.9-2-2V33  c0-1.1,0.9-2,2-2H119c1.1,0,2,0.9,2,2V112z" fill="none" stroke="#3D3D3D" stroke-miterlimit="10" stroke-width="2"/><path d="M56,114h10v2h-9.4c-0.3,0-0.6-0.4-0.6-0.6V114z" fill="#53AF80"/><path d="M56,114h10v2h-9.4c-0.3,0-0.6-0.4-0.6-0.6V114z" fill="none" stroke="#3D3D3D" stroke-miterlimit="10" stroke-width="2"/><path d="M56,31h10v-2h-9.4c-0.3,0-0.6,0.3-0.6,0.6V31z" fill="#53AF80"/><path d="M56,31h10v-2h-9.4c-0.3,0-0.6,0.3-0.6,0.6V31z" fill="none" stroke="#3D3D3D" stroke-miterlimit="10" stroke-width="2"/><rect fill="#C1C1C0" height="83" width="10" x="6" y="30"/><rect fill="none" height="83" stroke="#3D3D3D" stroke-miterlimit="10" stroke-width="2" width="10" x="6" y="30"/><path d="M15.9,49.8c0,0,5.9-19.8,5.2-19.8h-8.8c-0.3,0-0.5,0.1-0.5,0.4l3.8,19.8C15.7,50.5,15.9,50.2,15.9,49.8z" fill="#53AF80"/><path d="  M21,30h-8.7c-0.3,0-0.5,0.1-0.5,0.4l3.8,19.7c0.1,0.3,0.2,0.2,0.2-0.2" fill="none" stroke="#3D3D3D" stroke-linecap="round" stroke-linejoin="round" stroke-miterlimit="10" stroke-width="2"/><path d="M5,49.6C5,50,5.3,50.3,5.4,50l3.9-19.6C9.3,30.1,9.1,30,8.8,30H5V49.6z" fill="#53AF80"/><path d="  M5,49.6C5,50,5.3,50.3,5.4,50l3.9-19.6C9.3,30.1,9.1,30,8.8,30H5V49.6z" fill="none" stroke="#3D3D3D" stroke-linecap="round" stroke-linejoin="round" stroke-miterlimit="10" stroke-width="2"/><path d="M16,49.6V33.5c0-2.2,1.4-3.5,3.6-3.5h16.1c0.4,0,0.7,0.3,0.3,0.6L16.7,50.1C16.4,50.4,16,50,16,49.6z" fill="#53AF80"/><path d="M123,49.6V33.5c0-2.2-2.2-3.5-4.4-3.5h-16.3c-0.4,0-0.7,0.3-0.3,0.6l19.8,19.4C122.2,50.4,123,50,123,49.6z" fill="#53AF80"/><path d="M123,94.5v15.9c0,2.2-2.2,3.6-4.4,3.6h-16.3c-0.4,0-0.7-0.3-0.3-0.6L121.9,94C122.2,93.7,123,94.1,123,94.5z  " fill="#53AF80"/><path d="M16,49.6V33.5c0-2.2,1.4-3.5,3.6-3.5h16.1  c0.4,0,0.7,0.3,0.3,0.6L16.7,50.1C16.4,50.4,16,50,16,49.6z" fill="none" stroke="#3D3D3D" stroke-miterlimit="10" stroke-width="2"/><path d="M15.9,94.1c0,0,5.9,19.9,5.2,19.9h-8.8c-0.3,0-0.5-0.2-0.5-0.5l3.8-19.8C15.7,93.4,15.9,93.6,15.9,94.1z" fill="#53AF80"/><path d="  M21,114h-8.7c-0.3,0-0.5-0.2-0.5-0.5l3.8-19.7c0.1-0.3,0.2-0.1,0.2,0.3" fill="none" stroke="#3D3D3D" stroke-linecap="round" stroke-linejoin="round" stroke-miterlimit="10" stroke-width="2"/><path d="M5,94.2c0-0.4,0.3-0.7,0.4-0.3l3.9,19.7c0.1,0.3-0.1,0.5-0.4,0.5H5V94.2z" fill="#53AF80"/><path d="  M5,94.2c0-0.4,0.3-0.7,0.4-0.3l3.9,19.7c0.1,0.3-0.1,0.5-0.4,0.5H5V94.2z" fill="none" stroke="#3D3D3D" stroke-linecap="round" stroke-linejoin="round" stroke-miterlimit="10" stroke-width="2"/><path d="M16,94.2v16.1c0,2.2,1.4,3.8,3.6,3.8h16.1c0.4,0,0.7-0.5,0.3-0.8L16.7,93.8C16.4,93.5,16,93.7,16,94.2z" fill="#53AF80"/><path d="M16,94.2v16.1c0,2.2,1.4,3.8,3.6,3.8h16.1  c0.4,0,0.7-0.5,0.3-0.8L16.7,93.8C16.4,93.5,16,93.7,16,94.2z" fill="none" stroke="#3D3D3D" stroke-miterlimit="10" stroke-width="2"/><path d="M123,49.6V33.5c0-2.2-2.2-3.5-4.4-3.5h-16.3  c-0.4,0-0.7,0.3-0.3,0.6l19.8,19.4C122.2,50.4,123,50,123,49.6z" fill="none" stroke="#3D3D3D" stroke-miterlimit="10" stroke-width="2"/><path d="M123,94.5v15.9c0,2.2-2.2,3.6-4.4,3.6h-16.3  c-0.4,0-0.7-0.3-0.3-0.6L121.9,94C122.2,93.7,123,94.1,123,94.5z" fill="none" stroke="#3D3D3D" stroke-miterlimit="10" stroke-width="2"/><path d="M75,29.5c0-0.3-0.2-0.5-0.5-0.5h-10c-0.3,0-0.5,0.2-0.5,0.5v86c0,0.3,0.2,0.5,0.5,0.5h10  c0.3,0,0.5-0.2,0.5-0.5V29.5z" fill="#8DCEA8"/><path d="M75,29.5c0-0.3-0.2-0.5-0.5-0.5h-10  c-0.3,0-0.5,0.2-0.5,0.5v86c0,0.3,0.2,0.5,0.5,0.5h10c0.3,0,0.5-0.2,0.5-0.5V29.5z" fill="none" stroke="#3D3D3D" stroke-miterlimit="10" stroke-width="2"/><polyline fill="none" points="64.4,89.5 69.9,93.7 74.6,89.9 " stroke="#3D3D3D" stroke-miterlimit="10" stroke-width="2"/><path d="M77,85.5c0,0.3-0.2,0.5-0.5,0.5h-13c-0.3,0-0.5-0.2-0.5-0.5v-1c0-0.3,0.2-0.5,0.5-0.5h13  c0.3,0,0.5,0.2,0.5,0.5V85.5z" fill="#E2E2E2"/><path d="M77,85.5c0,0.3-0.2,0.5-0.5,0.5h-13  c-0.3,0-0.5-0.2-0.5-0.5v-1c0-0.3,0.2-0.5,0.5-0.5h13c0.3,0,0.5,0.2,0.5,0.5V85.5z" fill="none" stroke="#3D3D3D" stroke-miterlimit="10" stroke-width="2"/><circle cx="69.5" cy="41.7" fill="#3D3D3D" r="1.7"/><circle cx="69.5" cy="47.7" fill="#3D3D3D" r="1.7"/><circle cx="69.5" cy="53.7" fill="#3D3D3D" r="1.7"/><circle cx="69.9" cy="59.7" fill="#3D3D3D" r="1.7"/><ellipse cx="69.5" cy="65.9" fill="#3D3D3D" rx="1.7" ry="1.9"/><circle cx="69.5" cy="76" fill="#3D3D3D" r="1.7"/><path d="M79,61c0-1.1-0.9-2-2-2H62c-1.1,0-2,0.9-2,2V70c0,1.1,0.9,2,2,2H77c1.1,0,2-0.9,2-2V61z M77,70H63v-9h14V70z  " fill="#E2E2E2"/><path d="M79,70c0,1.1-0.9,2-2,2H62c-1.1,0-2-0.9-2-2V61  c0-1.1,0.9-2,2-2H77c1.1,0,2,0.9,2,2V70z" fill="none" stroke="#3D3D3D" stroke-miterlimit="10" stroke-width="2"/><rect fill="none" height="7" stroke="#3D3D3D" stroke-linejoin="round" stroke-miterlimit="10" stroke-width="2" width="13" x="63" y="62"/><rect fill="#FFFFFF" height="7" width="1" x="69" y="66"/><rect fill="#8DCEA8" height="13.8" transform="matrix(-0.2479 0.9688 -0.9688 -0.2479 188.1328 -25.2419)" width="3.4" x="102.1" y="53.5"/><rect fill="none" height="7" stroke="#3D3D3D" stroke-linejoin="round" stroke-miterlimit="10" stroke-width="2" width="1" x="69" y="66"/><path d="M108.8,67l-12.4-3.2c-0.3-0.1-0.4-0.3-0.4-0.6  l2.3-9.1c0.1-0.3,0.3-0.4,0.6-0.4l12.4,3.2c0.3,0.1,0.4,0.3,0.4,0.6l-2.3,9.1C109.3,66.9,109.1,67.1,108.8,67z" fill="none" stroke="#3D3D3D" stroke-miterlimit="10" stroke-width="2"/><polygon fill="none" points="36.7,56.4   42.5,55.4 40.9,54.4 44.3,49.1 42.5,49.4 42.4,46.7 40.2,48.1 39.4,45.9 37.4,50.1 36.4,43.7 34.6,45.6 31.8,42.8 31.4,46.7   28.8,46.4 32.1,52 27.9,50 28.6,52.2 26.1,52.5 27.8,54.6 26.1,55.6 32.2,57.5 31.5,59.3 " stroke="#3D3D3D" stroke-linejoin="round" stroke-miterlimit="10" stroke-width="2"/><line fill="none" stroke="#3D3D3D" stroke-linecap="round" stroke-linejoin="round" stroke-miterlimit="10" stroke-width="2" x1="34.5" x2="38.1" y1="50.2" y2="60.4"/><line fill="none" stroke="#3D3D3D" stroke-miterlimit="10" stroke-width="2" x1="97.6" x2="111" y1="57" y2="60.4"/><line fill="none" stroke="#3D3D3D" stroke-miterlimit="10" stroke-width="2" x1="96.8" x2="110.1" y1="60.4" y2="63.8"/><path d="M89.5,106.2c0,0,3.4-7.5,0.1-18.5" fill="none" stroke="#3D3D3D" stroke-miterlimit="10" stroke-width="2"/><path d="M102.3,102.3c0,0-7.5-4.2-10.8-15.2" fill="none" stroke="#3D3D3D" stroke-miterlimit="10" stroke-width="2"/><line fill="none" stroke="#3D3D3D" stroke-miterlimit="10" stroke-width="2" x1="87.6" x2="93.8" y1="106.8" y2="104.8"/><line fill="none" stroke="#3D3D3D" stroke-miterlimit="10" stroke-width="2" x1="97.7" x2="103.9" y1="103.7" y2="101.8"/><path d="M92.5,105.3c-0.6-1.8,0.4-3.8,2.2-4.3  c1.8-0.5,3.7,0.5,4.3,2.3" fill="none" stroke="#3D3D3D" stroke-miterlimit="10" stroke-width="2"/><polygon fill="none" points="89.4,87.7 88,85.8 89.4,83.9 91.7,84.7   91.6,87 " stroke="#3D3D3D" stroke-miterlimit="10" stroke-width="2"/><line fill="none" stroke="#3D3D3D" stroke-miterlimit="10" stroke-width="2" x1="89.5" x2="88.9" y1="84" y2="82.1"/><line fill="none" stroke="#3D3D3D" stroke-miterlimit="10" stroke-width="2" x1="89.5" x2="95.6" y1="95.1" y2="93.3"/><line fill="none" stroke="#3D3D3D" stroke-miterlimit="10" stroke-width="2" x1="88.9" x2="99" y1="100.4" y2="97.4"/><path d="M111.1,83.8  c-1.9-1.3-3.6-2.7-5.2-4.3c-0.8-0.8-1.7-1.7-2-2.8c-0.3-1.1,0.1-2.6,1.2-3c0.5-0.2,1.1-0.2,1.6,0c1.3,0.4,2.3,1.4,2.7,2.7  c0-0.5,0.4-0.9,0.8-1.2c1.2-0.8,2.6-1.1,4-0.9c1.1,0.2,2.2,0.9,2.3,1.9c0.1,0.7-0.4,1.4-0.8,2c-0.8,0.9-1.8,1.7-2.7,2.5  C112,81.5,111.3,82.6,111.1,83.8z" fill="none" stroke="#3D3D3D" stroke-linejoin="round" stroke-miterlimit="10" stroke-width="2"/><path d="M79,28v-2.4c0-4.2-1.6-8.5-13.5-8.5c-11.9,0-13.5,4.3-13.5,8.5V28h-3v-2.4c0-12,12.3-12,17-12  c4.7,0,17,0,17,12V28H79z" fill="#C1C1C0"/><path d="M50.6,28H38.8c-0.3,0-0.8,0.3-0.8,0.6V31h13v-2.4C51,28.3,50.9,28,50.6,28z" fill="#FFFFFF"/><path d="M79,28v-2.4c0-4.2-1.6-8.5-13.5-8.5  c-11.9,0-13.5,4.3-13.5,8.5V28h-3v-2.4c0-12,12.3-12,17-12c4.7,0,17,0,17,12V28H79z" fill="none" stroke="#3D3D3D" stroke-miterlimit="10" stroke-width="2"/><path d="M90.8,28H79c-0.3,0,0,0.3,0,0.6V31h12v-2.4C91,28.3,91.1,28,90.8,28z" fill="#FFFFFF"/><path d="M90.8,28H79c-0.3,0,0,0.3,0,0.6V31h12v-2.4  C91,28.3,91.1,28,90.8,28z" fill="none" stroke="#3D3D3D" stroke-miterlimit="10" stroke-width="2"/><path d="M93.8,28H82c-0.3,0-1,0.3-1,0.6V31h13v-2.4C94,28.3,94.1,28,93.8,28z" fill="#FFFFFF"/><path d="M93.8,28H82c-0.3,0-1,0.3-1,0.6V31h13v-2.4  C94,28.3,94.1,28,93.8,28z" fill="none" stroke="#3D3D3D" stroke-miterlimit="10" stroke-width="2"/><path d="M50.6,28H38.8c-0.3,0-0.8,0.3-0.8,0.6V31h13v-2.4  C51,28.3,50.9,28,50.6,28z" fill="none" stroke="#3D3D3D" stroke-miterlimit="10" stroke-width="2"/><polygon fill="#FFFFFF" points="26.9,85 21.7,78.9 25.8,72.1 33.6,73.9 34.3,81.8 "/><path d="M53.6,28H41.8c-0.3,0-0.8,0.3-0.8,0.6V31h13v-2.4C54,28.3,53.9,28,53.6,28z" fill="#FFFFFF"/><polygon fill="none" points="26.9,85 21.7,78.9   25.8,72.1 33.6,73.9 34.3,81.8 " stroke="#3D3D3D" stroke-linejoin="round" stroke-miterlimit="10" stroke-width="2"/><path d="M53.6,28H41.8c-0.3,0-0.8,0.3-0.8,0.6V31h13v-2.4  C54,28.3,53.9,28,53.6,28z" fill="none" stroke="#3D3D3D" stroke-miterlimit="10" stroke-width="2"/><polygon fill="#E2E2E2" points="30.6,81.1 38,72.7 41.6,83.4 "/><polygon fill="none" points="30.6,81.1 38,72.7   41.6,83.4 " stroke="#3D3D3D" stroke-linejoin="round" stroke-miterlimit="10" stroke-width="2"/><line fill="none" stroke="#3D3D3D" stroke-miterlimit="10" stroke-width="2" x1="6" x2="16" y1="61" y2="61"/><line fill="none" stroke="#3D3D3D" stroke-miterlimit="10" stroke-width="2" x1="6" x2="16" y1="66" y2="66"/><line fill="none" stroke="#3D3D3D" stroke-miterlimit="10" stroke-width="2" x1="6" x2="16" y1="71" y2="71"/><line fill="none" stroke="#3D3D3D" stroke-miterlimit="10" stroke-width="2" x1="6" x2="16" y1="76" y2="76"/><line fill="none" stroke="#3D3D3D" stroke-miterlimit="10" stroke-width="2" x1="6" x2="16" y1="81" y2="81"/></svg>