<?xml version="1.0" ?><!DOCTYPE svg  PUBLIC '-//W3C//DTD SVG 1.1//EN'  'http://www.w3.org/Graphics/SVG/1.1/DTD/svg11.dtd'><svg enable-background="new 0 0 128 128" id="Слой_1" version="1.1" viewBox="0 0 128 128" xml:space="preserve" xmlns="http://www.w3.org/2000/svg" xmlns:xlink="http://www.w3.org/1999/xlink"><circle cx="64" cy="64" fill="#CCE9E2" r="62"/><g><path d="M103.3,96.7L81,104.4l0,0c0.7-1.1,1.1-2.4,1-3.8c-0.3-3.1-3-5.4-6.1-5.4h-16c-6.2-9-22.9-9-22.9-9H23.4   v27.2l31.6,10c0,0,9.5,2.8,16.4,0c5.8-2.4,29.2-14.9,36.6-18.8c1.4-0.8,3.4-3,2.3-5.5l0,0C109.5,96.9,107.7,95.4,103.3,96.7z" fill="#F4CAA6"/><path d="M76,102.6H57.2c-2.5,0-4.5,2-4.5,4.5l0,0H76c3.3,0,5.9-2.7,5.9-5.9c0-0.4-0.1-2.8-0.1-3.2   C81.3,100.6,78.9,102.6,76,102.6z" fill="#FDFDFE"/><path d="M28.8,114.4V86.2h-5.4v27.2l5.3,1.7C28.8,114.9,28.8,114.6,28.8,114.4z" fill="#FDFDFE"/><path d="M23.4,114.4V85.4c0-1.9-1.6-3.5-3.5-3.5H4.2c-0.4,0-0.7,0.1-0.9,0.2c0,0.2,0,0.3,0,0.5   c0,12.9,3.7,25,10.2,35.2H20C21.9,117.9,23.4,116.3,23.4,114.4z" fill="#EAEAEA"/><circle cx="59.6" cy="70.1" fill="#E3D34C" r="5.6"/><circle cx="65.2" cy="27.6" fill="#E3D34C" r="3.7"/><circle cx="79.7" cy="41.1" fill="#E3D34C" r="1.9"/><path d="M76.4,75.7L76.4,75.7l0-7.5c0-16.5,13.3-29.8,29.8-29.8h0v7.5C106.2,62.4,92.8,75.7,76.4,75.7z" fill="#A0C279"/><path d="M76.4,75.7L76.4,75.7c0,0,10.1-7.6,17.1-16.4c7.8-9.8,12.7-20.9,12.7-20.9h0v7.5   C106.2,62.4,92.8,75.7,76.4,75.7z" fill="#FDFDFE"/><path d="M76.4,32.2L76.4,32.2l0-3c0-6.6,5.3-11.9,11.9-11.9h0v3C88.3,26.9,83,32.2,76.4,32.2z" fill="#A0C279"/><path d="M76.4,32.2L76.4,32.2c0,0,6.7-4.6,11.9-14.9h0v3C88.3,26.9,83,32.2,76.4,32.2z" fill="#FDFDFE"/><path d="M61.5,56.3L61.5,56.3l0-5.2c0-11.5-9.3-20.9-20.9-20.9h0v5.2C40.6,47,49.9,56.3,61.5,56.3z" fill="#A0C279"/><path d="M61.5,56.3L61.5,56.3l0-5.2c0-11.5-9.3-20.9-20.9-20.9h0C40.6,30.3,55.5,42.9,61.5,56.3z" fill="#FDFDFE"/><path d="M106.2,94.9c-1,0-2.1,0.2-3.4,0.5l-19.6,6.8c0-0.1,0-0.1,0-0.2c0-0.1,0-0.3,0-0.4c0-0.1,0-0.2,0-0.4   c0,0,0-0.1,0-0.1c0-0.1,0-0.2,0-0.3c0-0.1,0-0.2,0-0.3c0,0,0-0.1,0-0.1c0,0,0-0.1,0-0.1c0-0.2-0.1-0.4-0.1-0.6c0,0,0,0,0-0.1   c0,0,0,0,0-0.1c-0.7-3.2-3.8-5.7-7.3-5.7H60.5c-6.8-8.9-22.9-9-23.6-9H24.7c-0.3-2.4-2.3-4.3-4.8-4.3H4.2c-0.6,0-1.1,0.1-1.5,0.4   C2.3,81.2,2,81.7,2,82.1l0,0.2c0,0.1,0,0.2,0,0.3c0,12.7,3.6,25.2,10.4,35.9c0.2,0.4,0.7,0.6,1.1,0.6H20c2.4,0,4.3-1.7,4.7-4   l30,9.5c0.2,0.1,4.5,1.3,9.5,1.3h0c3,0,5.6-0.5,7.8-1.4c5.9-2.4,29.6-15.1,36.7-18.9c1.9-1,4.3-3.9,2.9-7.2   C110.6,96.1,108.8,94.9,106.2,94.9z M22.1,114.4c0,1.2-1,2.1-2.1,2.1h-5.7c-6.1-10-9.4-21.5-9.6-33.2H20c1.2,0,2.1,1,2.1,2.1   c0,0.1,0,0.3,0.1,0.4c0,0.1-0.1,0.3-0.1,0.4v27.2c0,0.2,0,0.3,0.1,0.5C22.1,114,22.1,114.2,22.1,114.4z M107.4,103.4   c-7.1,3.8-30.7,16.4-36.4,18.8c-1.9,0.8-4.2,1.2-6.8,1.2h0c-4.6,0-8.7-1.2-8.7-1.2l-30.7-9.7V87.6h12.1c0.2,0,16.1,0.1,21.8,8.4   c0.3,0.4,0.7,0.6,1.1,0.6h16c2.5,0,4.6,1.8,4.8,4.1c0,0.1,0,0.1,0,0.2c0,0.1,0,0.3,0,0.4c0,0.2,0,0.4-0.1,0.6c0,0.1,0,0.2,0,0.3   c0,0.2-0.1,0.4-0.2,0.6c0,0.1,0,0.2-0.1,0.2c-0.7,1.6-2.3,2.8-4.2,2.8H52.8c-0.7,0-1.3,0.6-1.3,1.3s0.6,1.3,1.3,1.3H76   c2.4,0,4.4-1.1,5.8-2.9l21.8-7.6c1-0.3,1.9-0.4,2.6-0.4c1.5,0,2.3,0.6,2.9,2C109.9,101.3,108.3,102.9,107.4,103.4z" fill="#62345B"/><path d="M59.6,77.1c3.8,0,6.9-3.1,6.9-6.9c0-3.8-3.1-6.9-6.9-6.9s-6.9,3.1-6.9,6.9C52.7,74,55.8,77.1,59.6,77.1z    M59.6,65.9c2.3,0,4.2,1.9,4.2,4.2c0,2.3-1.9,4.2-4.2,4.2c-2.3,0-4.2-1.9-4.2-4.2C55.4,67.8,57.3,65.9,59.6,65.9z" fill="#62345B"/><path d="M70.3,27.6c0-2.8-2.3-5.1-5.1-5.1c-2.8,0-5.1,2.3-5.1,5.1c0,2.8,2.3,5.1,5.1,5.1   C68,32.7,70.3,30.4,70.3,27.6z M65.2,30c-1.3,0-2.4-1.1-2.4-2.4c0-1.3,1.1-2.4,2.4-2.4c1.3,0,2.4,1.1,2.4,2.4   C67.6,29,66.5,30,65.2,30z" fill="#62345B"/><path d="M76.5,41.1c0,1.8,1.4,3.2,3.2,3.2c1.8,0,3.2-1.4,3.2-3.2c0-1.8-1.4-3.2-3.2-3.2   C78,37.9,76.5,39.3,76.5,41.1z M80.3,41.1c0,0.3-0.2,0.5-0.5,0.5c-0.3,0-0.5-0.2-0.5-0.5c0-0.3,0.2-0.5,0.5-0.5   C80,40.5,80.3,40.8,80.3,41.1z" fill="#62345B"/><path d="M76.4,77.1c17.2,0,31.2-14,31.2-31.2v-7.5c0-0.7-0.6-1.3-1.3-1.3C89,37.1,75,51.1,75,68.3v7.5   C75,76.5,75.6,77.1,76.4,77.1z M77.7,68.3c0-15.2,12-27.7,27.1-28.4v6.1c0,15.2-12,27.7-27.1,28.4V68.3z" fill="#62345B"/><path d="M61.5,57.7c0.7,0,1.3-0.6,1.3-1.3v-5.2c0-12.2-10-22.2-22.2-22.2c-0.7,0-1.3,0.6-1.3,1.3v5.2   C39.3,47.7,49.2,57.7,61.5,57.7z M41.9,31.6c10.1,0.7,18.2,9.2,18.2,19.5V55C50,54.3,41.9,45.8,41.9,35.5V31.6z" fill="#62345B"/><path d="M68.9,90.2c0.7,0,1.3-0.6,1.3-1.3V50.2c0-6.3,2.4-12.2,6.7-16.7c7-0.3,12.7-6.1,12.7-13.2v-3   c0-0.7-0.6-1.3-1.3-1.3C81,16,75,22,75,29.3v2.4c-4.8,5-7.5,11.6-7.5,18.5v38.6C67.6,89.6,68.2,90.2,68.9,90.2z M77.7,29.3   c0-5.4,4-9.8,9.2-10.5v1.6c0,5.4-4,9.8-9.2,10.5V29.3z" fill="#62345B"/></g></svg>