<?xml version="1.0" ?><!DOCTYPE svg  PUBLIC '-//W3C//DTD SVG 1.1//EN'  'http://www.w3.org/Graphics/SVG/1.1/DTD/svg11.dtd'><svg enable-background="new 0 0 128 128" id="Layer_1" version="1.1" viewBox="0 0 128 128" xml:space="preserve" xmlns="http://www.w3.org/2000/svg" xmlns:xlink="http://www.w3.org/1999/xlink"><path d="M40,122.3c-7.2,0.7-12.9-4-14.1-11.9c-1-6.9-7.3-45.4-1.7-63.6c5-16,17.7-17.8,24.3-15.7  c9.5,3.1,15.5,10.8,12.7,24c-3.1,14.7-11.9,23.5-10,41.4C53.2,115.3,50.2,121.3,40,122.3z" fill="#E2E2E2"/><path d="M74.3,96.9c6.8,2.5,13.5-0.7,16.6-8.1c2.7-6.4,18.3-42.2,17.4-61.2C107.5,10.8,95.6,6,88.7,6.4  C78.7,7.1,71,13.1,70.5,26.5c-0.6,15,5.7,25.7-0.6,42.6C63.3,86.8,64.7,93.3,74.3,96.9z" fill="#E2E2E2"/><path d="M25.8,101.3c-0.4,0-0.8,0-1.2,0.1c0.6,4.2,1.1,7.4,1.3,8.9c0.4,2.7,1.3,5.1,2.7,7c3.2-1.2,5.4-4.2,5.4-7.7  C34,105,30.3,101.3,25.8,101.3z" fill="#FFFFFF"/><path d="M52,82c-1.5-2.3-4-3.8-6.9-3.8c-4.6,0-8.3,3.7-8.3,8.3c0,4.6,3.7,8.3,8.3,8.3c2.3,0,4.4-0.9,5.9-2.4  C50.9,88.5,51.3,85.1,52,82z" fill="#FFFFFF"/><path d="M43.2,110.9c0,3.5,2.2,6.6,5.4,7.7c2.6-3,3.5-7.9,3.1-16c-0.1,0-0.2,0-0.3,0  C46.9,102.7,43.2,106.4,43.2,110.9z" fill="#FFFFFF"/><circle cx="30.7" cy="60.2" fill="#FFFFFF" r="8.3"/><circle cx="53.3" cy="54.4" fill="#FFFFFF" r="8.3"/><path d="M31.3,35c1.2,3,4.2,5.1,7.6,5.1c4.6,0,8.3-3.7,8.3-8.3c0-0.4,0-0.8-0.1-1.1C42.7,29.8,36.5,30.5,31.3,35z" fill="#FFFFFF"/><path d="M40,122.3  c-7.2,0.7-12.9-4-14.1-11.9c-1-6.9-7.3-45.4-1.7-63.6c5-16,17.7-17.8,24.3-15.7c9.5,3.1,15.5,10.8,12.7,24  c-3.1,14.7-11.9,23.5-10,41.4C53.2,115.3,50.2,121.3,40,122.3z" fill="none" stroke="#3D3D3D" stroke-linejoin="round" stroke-miterlimit="10" stroke-width="2"/><path d="M27.7,93.8c-1,0-1.9-0.6-2.3-1.5c-0.4-0.8-8.6-19.8-1.4-34.9c3.6-7.6,10.4-12.8,20.3-15.5  c0.9-0.3,2,0.1,2.6,0.8c20.2,24.4,4.1,43.8-1.3,50.2c-0.9,1.1-2.5,1.2-3.5,0.3c-1.1-0.9-1.2-2.5-0.3-3.5c7.9-9.5,16.6-24.1,2.3-42.5  c-7.5,2.4-12.8,6.5-15.5,12.4c-6.2,13.1,1.4,30.6,1.5,30.7c0.6,1.3,0,2.7-1.3,3.3C28.4,93.7,28,93.8,27.7,93.8z" fill="#53AF80"/><path d="M27.7,93.8  c-1,0-1.9-0.6-2.3-1.5c-0.4-0.8-8.6-19.8-1.4-34.9c3.6-7.6,10.4-12.8,20.3-15.5c0.9-0.3,2,0.1,2.6,0.8c20.2,24.4,4.1,43.8-1.3,50.2  c-0.9,1.1-2.5,1.2-3.5,0.3c-1.1-0.9-1.2-2.5-0.3-3.5c7.9-9.5,16.6-24.1,2.3-42.5c-7.5,2.4-12.8,6.5-15.5,12.4  c-6.2,13.1,1.4,30.6,1.5,30.7c0.6,1.3,0,2.7-1.3,3.3C28.4,93.7,28,93.8,27.7,93.8z" fill="none" stroke="#3D3D3D" stroke-linejoin="round" stroke-miterlimit="10" stroke-width="2"/><path d="M93.3,80.1c0.4,0.1,0.8,0.2,1.1,0.4c-1.6,3.9-2.9,6.9-3.5,8.3c-1.1,2.6-2.6,4.6-4.4,6.1  c-2.8-1.9-4.2-5.4-3.3-8.8C84.4,81.6,88.9,78.9,93.3,80.1z" fill="#FFFFFF"/><path d="M72.6,54.8c2-1.9,4.8-2.7,7.7-2c4.4,1.1,7.1,5.6,5.9,10c-1.1,4.4-5.6,7.1-10,5.9c-2.2-0.6-4-2-5.1-3.8  C72.1,61.4,72.6,58,72.6,54.8z" fill="#FFFFFF"/><path d="M74,85c-0.9,3.4-3.8,5.8-7.1,6.1c-1.8-3.5-1.5-8.6,0.9-16.2c0.1,0,0.2,0,0.3,0.1C72.5,76.1,75.2,80.6,74,85z  " fill="#FFFFFF"/><circle cx="98.7" cy="39.1" fill="#FFFFFF" r="8.3"/><circle cx="78.2" cy="27.7" fill="#FFFFFF" r="8.3"/><path d="M104.4,14.5c-1.9,2.6-5.3,3.9-8.6,3c-4.4-1.1-7.1-5.6-5.9-10c0.1-0.4,0.2-0.7,0.4-1.1  C94.7,6.6,100.5,8.8,104.4,14.5z" fill="#FFFFFF"/><path d="M74.3,96.9  c6.8,2.5,13.5-0.7,16.6-8.1c2.7-6.4,18.3-42.2,17.4-61.2C107.5,10.8,95.6,6,88.7,6.4C78.7,7.1,71,13.1,70.5,26.5  c-0.6,15,5.7,25.7-0.6,42.6C63.3,86.8,64.7,93.3,74.3,96.9z" fill="none" stroke="#3D3D3D" stroke-linejoin="round" stroke-miterlimit="10" stroke-width="2"/><path d="M93.3,72.3c0.9,0.2,2-0.1,2.6-0.9c0.5-0.7,13.3-17,10-33.5c-1.6-8.3-6.9-15-15.8-20.1  c-0.8-0.5-1.9-0.4-2.7,0.2C61.7,36.6,72.6,59.5,76.2,67c0.6,1.2,2.1,1.8,3.3,1.2c1.2-0.6,1.8-2.1,1.2-3.3  C75.4,53.7,70.6,37.3,89,23.1c6.7,4.2,10.7,9.5,12,15.8c2.8,14.2-8.9,29.3-9.1,29.4c-0.9,1.1-0.7,2.7,0.4,3.5  C92.6,72,93,72.2,93.3,72.3z" fill="#53AF80"/><path d="M93.3,72.3  c0.9,0.2,2-0.1,2.6-0.9c0.5-0.7,13.3-17,10-33.5c-1.6-8.3-6.9-15-15.8-20.1c-0.8-0.5-1.9-0.4-2.7,0.2C61.7,36.6,72.6,59.5,76.2,67  c0.6,1.2,2.1,1.8,3.3,1.2c1.2-0.6,1.8-2.1,1.2-3.3C75.4,53.7,70.6,37.3,89,23.1c6.7,4.2,10.7,9.5,12,15.8  c2.8,14.2-8.9,29.3-9.1,29.4c-0.9,1.1-0.7,2.7,0.4,3.5C92.6,72,93,72.2,93.3,72.3z" fill="none" stroke="#3D3D3D" stroke-linejoin="round" stroke-miterlimit="10" stroke-width="2"/></svg>