<?xml version="1.0" ?><!DOCTYPE svg  PUBLIC '-//W3C//DTD SVG 1.1//EN'  'http://www.w3.org/Graphics/SVG/1.1/DTD/svg11.dtd'><svg enable-background="new 0 0 128 128" id="Layer_1" version="1.1" viewBox="0 0 128 128" xml:space="preserve" xmlns="http://www.w3.org/2000/svg" xmlns:xlink="http://www.w3.org/1999/xlink"><polygon fill="#FFFFFF" points="43.9,118 124,118 124,16 43.9,16 24.3,7.6 5,16 5,118.1 24.3,109.6 "/><polygon fill="#E2E2E2" points="24,7.6 24,109.6 44,118.1 44,16 "/><path d="M5,40c0,1,1.9,0,1.9,0s1.4-0.9,2.6-2.3s1.2-0.5,2.1-1.4c0.9-0.9,0.9-1.4,2.1-2.3c1.2-1,1.6-1.1,3.5-1.9  c1.9-0.7,1.2-1.4,2.6-2.4c1.4-1,2.6,1.7,4.4,2.2c1.9,0.5,1.4,1.2,2.7,2.1s3.3,0.7,4.8,1c1.4,0.2,4.2,2.6,5.9,2.8s4.7-1.9,6.3-3  s4.2-5.4,4.4-6.6c0,0,3.3-5.6,3.7-6.5l3-5.6h-8.4l-0.9,5.6c-0.5,0.9-1.9,5.4-1.9,5.4s-2.1,2.1-3,2.6s-2.6,1.6-4.7,2.1  c-2.1,0.5-3-0.7-4.2-1.2c-1.2-0.5-3.5-2.3-5-3c-1.5-0.7-2.7-2.6-2.7-3.5s-2.6-0.9-3.5-0.8s-2.6,1.3-3.5,2s-3.7,1.4-4.4,2.1  C12,27.9,9.3,31,8.6,32.8S5,34,5,32.8S5,40,5,40z" fill="#C1C1C0"/><path d="M6.9,72.8c2.3-0.8,7,5.5,8.9,6.9s8.4,8.7,8.4,8.7s3.7,0.2,5.6,3.3c1.9,3,8,0.7,9.4,1.4  c1.4,0.7,4.7,4.4,4.7,4.4s7-7,10.3-9.1c3.3-2.1,4.7-3,7-3.7c2.3-0.7,9.8-1.2,11.7,0c1.9,1.2,9.4,2.1,10.8,0.4  c1.4-1.6,9.8,1.6,13.3,3c3.5,1.4,5.4,3.3,6.8,4.9c1.4,1.7,17.1,10,17.1,10c1.1,0.6,3.1,3.7,3.1,3.7s0-16.2,0-16.9s-1.9-1.2-3.1-1.9  c0,0-5.5-5.6-8.3-7.5s-5.1-5.2-8.4-7.8c-3.3-2.7-8.9-0.1-14.5,0c-5.6,0.1-9.4-1.5-12.6-7.3c-3.3-5.8-4.2-6.4-4.2-10.6  s2.8-6.6,5.2-10.6s1.4-4.8,1.9-9.8S85.5,23,85.5,23c1.2-1.6,7.7-7,7.7-7H67.1l-0.3,5.6c0,2.8-1.9,14.7-3.3,17.4  c-1.4,2.7-3.3,1.6-2.8,6.9s1.8,6.4,3,11.4s2.1,8.8,3.1,10.7s-0.5,6.2,0,7.1s-2.1,3.2-2.9,4.6c-0.8,1.4-10,2.3-9.7,3.5  c0.2,1.2-4,4.7-4.9,4.9c-0.9,0.2-5.4,3-5.4,3s-2.1-1.2-3.3-1.6S39,89,37.8,89.7S36.8,90.7,35,90c-1.9-0.7-1.9,0-3.3-1.9  c-1.4-1.9-2.6-1.5-3.7-2.2s-1.4-1.6-2.6-1.6s-4.7-4.7-5.6-5.6s-6.1-6.6-7.3-7s-2.3-0.7-3.3-1.2s-4.4-1.2-4.4-1.2S4.5,73.6,6.9,72.8z  " fill="#C1C1C0"/><polygon fill="none" points="  43.9,118 124,118 124,16 43.9,16 24.3,7.6 5,16 5,118.1 24.3,109.6 " stroke="#3D3D3D" stroke-linecap="round" stroke-linejoin="round" stroke-miterlimit="10" stroke-width="2"/><line fill="none" stroke="#3D3D3D" stroke-dasharray="5" stroke-linecap="square" stroke-linejoin="round" stroke-miterlimit="10" stroke-width="2" x1="24" x2="24" y1="14" y2="107"/><line fill="none" stroke="#3D3D3D" stroke-dasharray="5" stroke-linecap="square" stroke-linejoin="round" stroke-miterlimit="10" stroke-width="2" x1="44" x2="44" y1="22" y2="114"/><path d="  M89.1,19.5c0,0-8.7,7.5-9.2,14.9c-0.3,5,0.5,5.7-1.9,9.8s-5.2,6.4-5.2,10.6s0.9,4.8,4.2,10.6c3.3,5.8,7,7.5,12.6,7.3  c5.6-0.1,11.2-2.7,14.5,0c3.3,2.7,5.6,5.9,8.4,7.8s8.4,7.5,8.4,7.5" fill="none" stroke="#3D3D3D" stroke-linecap="round" stroke-linejoin="round" stroke-miterlimit="10" stroke-width="2"/><path d="  M121.1,103.1c0,0-15.9-8.4-17.3-10c-1.4-1.7-3.3-3.5-6.8-4.9c-3.5-1.4-11.9-4.7-13.3-3c-1.4,1.6-8.9,0.7-10.8-0.4  c-1.9-1.2-9.4-0.7-11.7,0c-2.3,0.7-3.7,1.6-7,3.7c-3.3,2.1-10.3,9.1-10.3,9.1s-3.3-3.7-4.7-4.4c-1.4-0.7-7.5,1.6-9.4-1.4  c-1.9-3-5.6-3.3-5.6-3.3s-6.6-7.3-8.4-8.7S9.2,72,6.9,72.8" fill="none" stroke="#3D3D3D" stroke-linecap="round" stroke-linejoin="round" stroke-miterlimit="10" stroke-width="2"/><path d="  M66.9,19.5c0,2.8-2,16.7-3.4,19.5c-1.4,2.7-3.3,1.6-2.8,6.9s1.8,6.4,3,11.4s2.1,8.8,3.1,10.7s-0.5,6.2,0,7.1s-2.1,3.2-2.9,4.6  c-0.8,1.4-10,2.3-9.7,3.5c0.2,1.2-4,4.7-4.9,4.9c-0.9,0.2-5.4,3-5.4,3s-2.1-1.2-3.3-1.6S39,89,37.8,89.7c-1.2,0.7-0.9,0.9-2.8,0.2  c-1.9-0.7-1.9,0-3.3-1.9c-1.4-1.9-2.6-1.5-3.7-2.2s-1.4-1.6-2.6-1.6s-4.7-4.7-5.6-5.6s-6.1-6.6-7.3-7s-2.3-0.7-3.3-1.2" fill="none" stroke="#3D3D3D" stroke-linecap="round" stroke-linejoin="round" stroke-miterlimit="10" stroke-width="2"/><path d="  M8.3,32.8C9,31,12,27.9,12.7,27.2c0.7-0.7,3.5-1.4,4.4-2.1s2.6-1.9,3.5-2c0.9-0.1,3.5-0.1,3.5,0.8s1.3,2.8,2.7,3.5  c1.5,0.7,3.8,2.6,5,3c1.2,0.5,2.1,1.6,4.2,1.2c2.1-0.5,3.7-1.6,4.7-2.1s3-2.6,3-2.6s1.7-6.5,2.2-7.5" fill="none" stroke="#3D3D3D" stroke-linecap="round" stroke-linejoin="round" stroke-miterlimit="10" stroke-width="2"/><path d="  M53.2,19.5c-0.5,0.9-4.9,8.6-4.9,8.6c-0.2,1.2-2.8,5.4-4.4,6.6s-4.7,3.3-6.3,3c-1.6-0.2-4.4-2.6-5.9-2.8c-1.4-0.2-3.4,0-4.8-1  c-1.3-0.9-0.9-1.6-2.7-2.1c-1.9-0.5-3-3.3-4.4-2.2c-1.4,1-0.7,1.7-2.6,2.4S14.8,33,13.7,34c-1.2,1-1.2,1.4-2.1,2.4  c-0.9,0.9-0.9,0-2.1,1.4s-2.6,2.3-2.6,2.3" fill="none" stroke="#3D3D3D" stroke-linecap="round" stroke-linejoin="round" stroke-miterlimit="10" stroke-width="2"/><path d="M114.1,60c0,1.5-1.3,2.7-2.8,2.7c-1.6,0-2.8-1.2-2.8-2.7s1.3-6.5,2.8-6.5C112.9,53.5,114.1,58.5,114.1,60z" fill="#53AF80"/><path d="  M114.1,60c0,1.5-1.3,2.7-2.8,2.7c-1.6,0-2.8-1.2-2.8-2.7s1.3-6.5,2.8-6.5C112.9,53.5,114.1,58.5,114.1,60z" fill="none" stroke="#3D3D3D" stroke-linecap="round" stroke-linejoin="round" stroke-miterlimit="10" stroke-width="2"/><line fill="none" stroke="#3D3D3D" stroke-linecap="round" stroke-linejoin="round" stroke-miterlimit="10" stroke-width="2" x1="111" x2="111" y1="60" y2="65"/><path d="M104.7,59.1c0,1.5-1.3,2.7-2.8,2.7s-2.8-1.2-2.8-2.7s1.3-6.5,2.8-6.5S104.7,57.6,104.7,59.1z" fill="#53AF80"/><path d="  M104.7,59.1c0,1.5-1.3,2.7-2.8,2.7s-2.8-1.2-2.8-2.7s1.3-6.5,2.8-6.5S104.7,57.6,104.7,59.1z" fill="none" stroke="#3D3D3D" stroke-linecap="round" stroke-linejoin="round" stroke-miterlimit="10" stroke-width="2"/><line fill="none" stroke="#3D3D3D" stroke-linecap="round" stroke-linejoin="round" stroke-miterlimit="10" stroke-width="2" x1="102" x2="102" y1="59" y2="64"/><path d="M110.4,46.9c0,1.5-1.3,2.7-2.8,2.7c-1.6,0-2.8-1.2-2.8-2.7s1.3-6.5,2.8-6.5  C109.1,40.4,110.4,45.4,110.4,46.9z" fill="#53AF80"/><path d="  M110.4,46.9c0,1.5-1.3,2.7-2.8,2.7c-1.6,0-2.8-1.2-2.8-2.7s1.3-6.5,2.8-6.5C109.1,40.4,110.4,45.4,110.4,46.9z" fill="none" stroke="#3D3D3D" stroke-linecap="round" stroke-linejoin="round" stroke-miterlimit="10" stroke-width="2"/><line fill="none" stroke="#3D3D3D" stroke-linecap="round" stroke-linejoin="round" stroke-miterlimit="10" stroke-width="2" x1="108" x2="108" y1="47" y2="52"/><path d="M95.4,107.8c0,1.5-1.3,2.7-2.8,2.7c-1.6,0-2.8-1.2-2.8-2.7s1.3-6.5,2.8-6.5  C94.1,101.3,95.4,106.3,95.4,107.8z" fill="#53AF80"/><path d="  M95.4,107.8c0,1.5-1.3,2.7-2.8,2.7c-1.6,0-2.8-1.2-2.8-2.7s1.3-6.5,2.8-6.5C94.1,101.3,95.4,106.3,95.4,107.8z" fill="none" stroke="#3D3D3D" stroke-linecap="round" stroke-linejoin="round" stroke-miterlimit="10" stroke-width="2"/><line fill="none" stroke="#3D3D3D" stroke-linecap="round" stroke-linejoin="round" stroke-miterlimit="10" stroke-width="2" x1="93" x2="93" y1="108" y2="112"/><path d="M77.6,102.1c0,1.5-1.3,2.7-2.8,2.7s-2.8-1.2-2.8-2.7s1.3-6.5,2.8-6.5S77.6,100.6,77.6,102.1z" fill="#53AF80"/><path d="  M77.6,102.1c0,1.5-1.3,2.7-2.8,2.7s-2.8-1.2-2.8-2.7s1.3-6.5,2.8-6.5S77.6,100.6,77.6,102.1z" fill="none" stroke="#3D3D3D" stroke-linecap="round" stroke-linejoin="round" stroke-miterlimit="10" stroke-width="2"/><line fill="none" stroke="#3D3D3D" stroke-linecap="round" stroke-linejoin="round" stroke-miterlimit="10" stroke-width="2" x1="75" x2="75" y1="102" y2="107"/><path d="M60.7,70.3c0,1.5-1.3,2.7-2.8,2.7s-2.8-1.2-2.8-2.7s1.3-6.5,2.8-6.5S60.7,68.8,60.7,70.3z" fill="#53AF80"/><path d="  M60.7,70.3c0,1.5-1.3,2.7-2.8,2.7s-2.8-1.2-2.8-2.7s1.3-6.5,2.8-6.5S60.7,68.8,60.7,70.3z" fill="none" stroke="#3D3D3D" stroke-linecap="round" stroke-linejoin="round" stroke-miterlimit="10" stroke-width="2"/><line fill="none" stroke="#3D3D3D" stroke-linecap="round" stroke-linejoin="round" stroke-miterlimit="10" stroke-width="2" x1="58" x2="58" y1="70" y2="75"/><path d="M60.7,31c0,1.5-1.3,2.7-2.8,2.7s-2.8-1.2-2.8-2.7s1.3-6.5,2.8-6.5S60.7,29.5,60.7,31z" fill="#53AF80"/><path d="  M60.7,31c0,1.5-1.3,2.7-2.8,2.7s-2.8-1.2-2.8-2.7s1.3-6.5,2.8-6.5S60.7,29.5,60.7,31z" fill="none" stroke="#3D3D3D" stroke-linecap="round" stroke-linejoin="round" stroke-miterlimit="10" stroke-width="2"/><line fill="none" stroke="#3D3D3D" stroke-linecap="round" stroke-linejoin="round" stroke-miterlimit="10" stroke-width="2" x1="58" x2="58" y1="31" y2="36"/><path d="M34.7,79.7c0,1.5-0.9,2.7-2.1,2.7c-1.2,0-2.1-1.2-2.1-2.7s0.9-6.5,2.1-6.5C33.8,73.2,34.7,78.2,34.7,79.7z" fill="#53AF80"/><path d="  M34.7,79.7c0,1.5-0.9,2.7-2.1,2.7c-1.2,0-2.1-1.2-2.1-2.7s0.9-6.5,2.1-6.5C33.8,73.2,34.7,78.2,34.7,79.7z" fill="none" stroke="#3D3D3D" stroke-linecap="round" stroke-linejoin="round" stroke-miterlimit="10" stroke-width="2"/><line fill="none" stroke="#3D3D3D" stroke-linecap="round" stroke-linejoin="round" stroke-miterlimit="10" stroke-width="2" x1="33" x2="33" y1="80" y2="84"/><path d="M14.1,88.1c0,1.5-0.9,2.7-2.1,2.7s-2.1-1.2-2.1-2.7s0.9-6.5,2.1-6.5S14.1,86.6,14.1,88.1z" fill="#53AF80"/><path d="  M14.1,88.1c0,1.5-0.9,2.7-2.1,2.7s-2.1-1.2-2.1-2.7s0.9-6.5,2.1-6.5S14.1,86.6,14.1,88.1z" fill="none" stroke="#3D3D3D" stroke-linecap="round" stroke-linejoin="round" stroke-miterlimit="10" stroke-width="2"/><line fill="none" stroke="#3D3D3D" stroke-linecap="round" stroke-linejoin="round" stroke-miterlimit="10" stroke-width="2" x1="12" x2="12" y1="88" y2="93"/><line fill="none" stroke="#3D3D3D" stroke-miterlimit="10" stroke-width="2" x1="97" x2="120" y1="22" y2="22"/><line fill="none" stroke="#3D3D3D" stroke-miterlimit="10" stroke-width="2" x1="98" x2="98" y1="22" y2="24"/><line fill="none" stroke="#3D3D3D" stroke-miterlimit="10" stroke-width="2" x1="101" x2="101" y1="22" y2="24"/><line fill="none" stroke="#3D3D3D" stroke-miterlimit="10" stroke-width="2" x1="104" x2="104" y1="22" y2="24"/><line fill="none" stroke="#3D3D3D" stroke-miterlimit="10" stroke-width="2" x1="107" x2="107" y1="22" y2="24"/><line fill="none" stroke="#3D3D3D" stroke-miterlimit="10" stroke-width="2" x1="109" x2="109" y1="22" y2="24"/><line fill="none" stroke="#3D3D3D" stroke-miterlimit="10" stroke-width="2" x1="112" x2="112" y1="22" y2="24"/><line fill="none" stroke="#3D3D3D" stroke-miterlimit="10" stroke-width="2" x1="115" x2="115" y1="22" y2="24"/><line fill="none" stroke="#3D3D3D" stroke-miterlimit="10" stroke-width="2" x1="118" x2="118" y1="22" y2="24"/><circle cx="116" cy="30" fill="none" r="3.1" stroke="#3D3D3D" stroke-miterlimit="10" stroke-width="2"/><line fill="none" stroke="#3D3D3D" stroke-miterlimit="10" stroke-width="2" x1="116" x2="116" y1="27" y2="33"/><line fill="none" stroke="#3D3D3D" stroke-miterlimit="10" stroke-width="2" x1="113" x2="119" y1="30" y2="30"/></svg>