<?xml version="1.0" ?><!DOCTYPE svg  PUBLIC '-//W3C//DTD SVG 1.1//EN'  'http://www.w3.org/Graphics/SVG/1.1/DTD/svg11.dtd'><svg enable-background="new 0 0 128 128" id="Layer_1" version="1.1" viewBox="0 0 128 128" xml:space="preserve" xmlns="http://www.w3.org/2000/svg" xmlns:xlink="http://www.w3.org/1999/xlink"><path d="M14.5,90.7c0.5-1,60.9-55.9,68.1-60.6c7.2-4.7,17.6-3.2,27.5,4.5S116.9,44,116,46c-0.9,2-3.6,1.6-9.6-2.7  c-5.9-4.2-13.3-11.2-17.7-10.5c-4.5,0.7-68.7,63.3-68.7,63.3" fill="#53AF80"/><path d="M90.6,14.5C89.6,15,34.7,75.4,30,82.6c-4.7,7.2-3.2,17.6,4.5,27.5S43.9,117,46,116c2-0.9,1.6-3.6-2.7-9.6  C39,100.5,32,93.2,32.8,88.7C33.5,84.3,96.1,20,96.1,20" fill="#53AF80"/><ellipse cx="82.8" cy="43.2" fill="#C1C1C0" rx="22.6" ry="18.1" transform="matrix(0.7071 -0.7071 0.7071 0.7071 -6.2963 71.1853)"/><path d="M14.5,90.7c0.5-1,60.9-55.9,68.1-60.6  c7.2-4.7,17.6-3.2,27.5,4.5S116.9,44,116,46c-0.9,2-3.6,1.6-9.6-2.7c-5.9-4.2-13.3-11.2-17.7-10.5c-4.5,0.7-68.7,63.3-68.7,63.3" fill="none" stroke="#3D3D3D" stroke-miterlimit="10" stroke-width="2"/><ellipse cx="43.2" cy="82.8" fill="#C1C1C0" rx="22.6" ry="18.1" transform="matrix(0.7071 -0.7071 0.7071 0.7071 -45.8695 54.7936)"/><path d="M90.6,14.5C89.6,15,34.7,75.4,30,82.6c-4.7,7.2-12.1,2.1-4.5,12s9.5,6.9,11.5,5.9c2-0.9,1.6-3.6-2.7-9.6  s-2.3,2.2-1.6-2.2C33.5,84.3,96.1,20,96.1,20" fill="#C1C1C0"/><path d="M90.6,14.5C89.6,15,34.7,75.4,30,82.6  c-4.7,7.2-3.2,17.6,4.5,27.5S43.9,117,46,116c2-0.9,1.6-3.6-2.7-9.6C39,100.5,32,93.2,32.8,88.7C33.5,84.3,96.1,20,96.1,20" fill="none" stroke="#3D3D3D" stroke-miterlimit="10" stroke-width="2"/><path d="M69.6,29.4C61.9,38.1,58.9,48.5,53.3,54c-0.1,0.1-0.2,0.2-0.2,0.3c-0.1,0.1-0.2,0.2-0.3,0.2  c-5.6,5.6-16,8.5-24.6,16.2S13.3,91.8,13.3,91.8l5.4,5.4c0,0,2.2-3.2,5.2,0c5,5.4,16,10.8,21.2,8.8c5.2-2,19.2-13.7,19.6-23  c0.4-9.3-8.7-21.3-6.7-23.3c0.1-0.1,0.2-0.2,0.2-0.3c0.1-0.1,0.2-0.1,0.3-0.2c2-2,14,7.1,23.3,6.7c9.3-0.4,21.1-14.4,23-19.6  c2-5.2-3.3-16.2-8.8-21.2c-3.2-3,0-5.2,0-5.2l-5.4-5.4C90.6,14.5,77.2,20.7,69.6,29.4z M58.4,77.7c2.1,10.5-4.3,16.5-11.6,21.3  c-7.3,4.8-14.7-1.4-19.2-5.8c-4.5-4.5-2.3-7.9-0.2-12.1c1.5-3.1,7.4-8.9,14.9-13.1S56.3,67.2,58.4,77.7z M97.8,48  C93,55.3,87,61.7,76.5,59.6c-10.5-2.1-14-8.8-9.8-16.2c4.2-7.4,10-13.4,13.1-14.9c4.3-2,7.7-4.2,12.1,0.2  C96.4,33.2,102.6,40.7,97.8,48z" fill="#8DCEA8"/><path d="M69.6,29.4C61.9,38.1,58.9,48.5,53.3,54  c-0.1,0.1-0.2,0.2-0.2,0.3c-0.1,0.1-0.2,0.2-0.3,0.2c-5.6,5.6-16,8.5-24.6,16.2S13.3,91.8,13.3,91.8l5.4,5.4c0,0,2.2-3.2,5.2,0  c5,5.4,16,10.8,21.2,8.8c5.2-2,19.2-13.7,19.6-23c0.4-9.3-8.7-21.3-6.7-23.3c0.1-0.1,0.2-0.2,0.2-0.3c0.1-0.1,0.2-0.1,0.3-0.2  c2-2,14,7.1,23.3,6.7c9.3-0.4,21.1-14.4,23-19.6c2-5.2-3.3-16.2-8.8-21.2c-3.2-3,0-5.2,0-5.2l-5.4-5.4  C90.6,14.5,77.2,20.7,69.6,29.4z M58.4,77.7c2.1,10.5-4.3,16.5-11.6,21.3c-7.3,4.8-14.7-1.4-19.2-5.8c-4.5-4.5-2.3-7.9-0.2-12.1  c1.5-3.1,7.4-8.9,14.9-13.1S56.3,67.2,58.4,77.7z M97.8,48C93,55.3,87,61.7,76.5,59.6c-10.5-2.1-14-8.8-9.8-16.2  c4.2-7.4,10-13.4,13.1-14.9c4.3-2,7.7-4.2,12.1,0.2C96.4,33.2,102.6,40.7,97.8,48z" fill="none" stroke="#3D3D3D" stroke-miterlimit="10" stroke-width="2"/></svg>