<?xml version="1.0" ?><!DOCTYPE svg  PUBLIC '-//W3C//DTD SVG 1.1//EN'  'http://www.w3.org/Graphics/SVG/1.1/DTD/svg11.dtd'><svg enable-background="new 0 0 128 128" id="Слой_1" version="1.1" viewBox="0 0 128 128" xml:space="preserve" xmlns="http://www.w3.org/2000/svg" xmlns:xlink="http://www.w3.org/1999/xlink"><g><g><g><g><g><path d="M54.7,122.4H34.1c-2.7,0-4.9-2.2-4.9-4.9V60.8c0-4.4,1.8-8.7,4.9-11.8l0,0c3.1-3.1,4.9-7.4,4.9-11.8       V19.7h-1v-4.9h12.7v4.9h-1v17.5c0,4.4,1.8,8.7,4.9,11.8l0,0c3.1,3.1,4.9,7.4,4.9,11.8v56.7C59.6,120.2,57.4,122.4,54.7,122.4z" fill="#98D1A2"/></g><g><path d="M54.7,122.4H34.1c-2.7,0-4.9-2.2-4.9-4.9V60.8c0-4.4,1.8-8.7,4.9-11.8l0,0c3.1-3.1,4.9-7.4,4.9-11.8       v-7.8h10.8v7.8c0,4.4,1.8,8.7,4.9,11.8l0,0c3.1,3.1,4.9,7.4,4.9,11.8v56.7C59.6,120.2,57.4,122.4,54.7,122.4z" fill="#AE516E"/></g><g opacity="0.2"><g><path d="M54.7,49L54.7,49c-3.1-3.1-4.9-7.4-4.9-11.8V14.8h-3.9v22.4c0,4.4,0.8,8.7,3.9,11.8        c3.1,3.1,2.9,7.4,2.9,11.8v56.7c0,2.7-2.2,4.9-4.9,4.9h6.9c2.7,0,4.9-2.2,4.9-4.9V60.8C59.6,56.4,57.8,52.2,54.7,49z" fill="#62345B"/></g></g><g><rect fill="#B3E1E7" height="29.4" width="30.3" x="29.3" y="73.5"/></g><g><path d="M59.6,104.9H29.3c-1.1,0-2-0.9-2-2s0.9-2,2-2h30.3c1.1,0,2,0.9,2,2S60.7,104.9,59.6,104.9z" fill="#62345B"/></g><g><path d="M59.6,75.5H29.3c-1.1,0-2-0.9-2-2s0.9-2,2-2h30.3c1.1,0,2,0.9,2,2S60.7,75.5,59.6,75.5z" fill="#62345B"/></g><g><path d="M54.7,124.4H34.1c-3.8,0-6.9-3.1-6.9-6.9V60.8c0-5,1.9-9.7,5.5-13.2c2.8-2.8,4.3-6.5,4.3-10.4V21.4       c-0.6-0.3-1-1-1-1.7v-4.9c0-1.1,0.9-2,2-2h12.7c1.1,0,2,0.9,2,2v4.9c0,0.7-0.4,1.4-1,1.7v15.8c0,3.9,1.5,7.6,4.3,10.4       c3.5,3.5,5.5,8.2,5.5,13.2v56.7C61.6,121.3,58.5,124.4,54.7,124.4z M40.1,17.9c0.6,0.3,1,1,1,1.7v17.5c0,5-1.9,9.7-5.5,13.2       c-2.8,2.8-4.3,6.5-4.3,10.4v56.7c0,1.6,1.3,2.9,2.9,2.9h20.6c1.6,0,2.9-1.3,2.9-2.9V60.8c0-3.9-1.5-7.6-4.3-10.4       c-3.5-3.5-5.5-8.2-5.5-13.2V19.7c0-0.7,0.4-1.4,1-1.7v-1.2h-8.7V17.9z" fill="#62345B"/></g><g><path d="M50.8,21.7H38.1c-1.1,0-2-0.9-2-2s0.9-2,2-2h12.7c1.1,0,2,0.9,2,2S51.9,21.7,50.8,21.7z" fill="#62345B"/></g></g><g><circle cx="40.5" cy="88.2" fill="#FFFFFF" r="2.4"/></g><g><circle cx="48.3" cy="88.2" fill="#FFFFFF" r="2.4"/></g><g><circle cx="44.4" cy="93.1" fill="#FFFFFF" r="2.4"/></g><g><path d="M44.4,88.7c-0.3,0-0.5-0.2-0.5-0.5v-5.9c0-0.3,0.2-0.5,0.5-0.5s0.5,0.2,0.5,0.5v5.9      C44.9,88.4,44.7,88.7,44.4,88.7z" fill="#FFFFFF"/></g></g><g><g><g><path d="M93.9,122.4H73.3c-2.7,0-4.9-2.2-4.9-4.9V60.8c0-4.4,1.8-8.7,4.9-11.8l0,0c3.1-3.1,4.9-7.4,4.9-11.8       V19.7h-1v-4.9h12.7v4.9h-1v17.5c0,4.4,1.8,8.7,4.9,11.8l0,0c3.1,3.1,4.9,7.4,4.9,11.8v56.7C98.7,120.2,96.6,122.4,93.9,122.4z" fill="#98D1A2"/></g><g><path d="M93.9,122.4H73.3c-2.7,0-4.9-2.2-4.9-4.9V60.8c0-4.4,1.8-8.7,4.9-11.8l0,0c3.1-3.1,4.9-7.4,4.9-11.8       v-7.8H89v7.8c0,4.4,1.8,8.7,4.9,11.8l0,0c3.1,3.1,4.9,7.4,4.9,11.8v56.7C98.7,120.2,96.6,122.4,93.9,122.4z" fill="#BC7D92"/></g><g opacity="0.2"><g><path d="M93.9,49L93.9,49c-3.1-3.1-4.9-7.4-4.9-11.8V14.8H85v22.4c0,4.4,0.8,8.7,3.9,11.8        c3.1,3.1,2.9,7.4,2.9,11.8v56.7c0,2.7-2.2,4.9-4.9,4.9h6.9c2.7,0,4.9-2.2,4.9-4.9V60.8C98.7,56.4,97,52.2,93.9,49z" fill="#62345B"/></g></g><g><rect fill="#66625D" height="29.4" width="30.3" x="68.4" y="73.5"/></g><g><path d="M98.7,104.9H68.4c-1.1,0-2-0.9-2-2s0.9-2,2-2h30.3c1.1,0,2,0.9,2,2S99.9,104.9,98.7,104.9z" fill="#62345B"/></g><g><path d="M98.7,75.5H68.4c-1.1,0-2-0.9-2-2s0.9-2,2-2h30.3c1.1,0,2,0.9,2,2S99.9,75.5,98.7,75.5z" fill="#62345B"/></g><g><path d="M93.9,124.4H73.3c-3.8,0-6.9-3.1-6.9-6.9V60.8c0-5,1.9-9.7,5.5-13.2c2.8-2.8,4.3-6.5,4.3-10.4V21.4       c-0.6-0.3-1-1-1-1.7v-4.9c0-1.1,0.9-2,2-2h12.7c1.1,0,2,0.9,2,2v4.9c0,0.7-0.4,1.4-1,1.7v15.8c0,3.9,1.5,7.6,4.3,10.4       c3.5,3.5,5.5,8.2,5.5,13.2v56.7C100.7,121.3,97.7,124.4,93.9,124.4z M79.2,17.9c0.6,0.3,1,1,1,1.7v17.5c0,5-1.9,9.7-5.5,13.2       c-2.8,2.8-4.3,6.5-4.3,10.4v56.7c0,1.6,1.3,2.9,2.9,2.9h20.6c1.6,0,2.9-1.3,2.9-2.9V60.8c0-3.9-1.5-7.6-4.3-10.4       c-3.5-3.5-5.5-8.2-5.5-13.2V19.7c0-0.7,0.4-1.4,1-1.7v-1.2h-8.7V17.9z" fill="#62345B"/></g><g><path d="M89.9,21.7H77.2c-1.1,0-2-0.9-2-2s0.9-2,2-2h12.7c1.1,0,2,0.9,2,2S91,21.7,89.9,21.7z" fill="#62345B"/></g></g><g><circle cx="79.7" cy="88.2" fill="#FFFFFF" r="2.4"/></g><g><circle cx="87.5" cy="88.2" fill="#FFFFFF" r="2.4"/></g><g><circle cx="83.6" cy="93.1" fill="#FFFFFF" r="2.4"/></g><g><path d="M83.6,86.5c-0.3,0-0.5-0.2-0.5-0.5v-3.7c0-0.3,0.2-0.5,0.5-0.5s0.5,0.2,0.5,0.5V86      C84.1,86.3,83.9,86.5,83.6,86.5z" fill="#FFFFFF"/></g></g></g><g><g opacity="0.2"><path d="M86.6,117V54.7c0-6.5-2.5-12.6-7.1-17.2c-1.3-1.3-2.2-2.8-2.8-4.4v4c0,4-1.6,7.8-4.4,10.7     c-3.5,3.5-5.4,8-5.4,12.9v56.7c0,3.6,2.9,6.5,6.5,6.5h10.8C85.7,122.1,86.6,119.7,86.6,117z" fill="#62345B"/></g><g opacity="0.2"><path d="M75.7,20.2c0,0,0,0.1,0.1,0.1v-6.2c-0.1,0.2-0.1,0.4-0.1,0.7v4.9C75.6,19.8,75.7,19.9,75.7,20.2     C75.7,20.1,75.7,20.1,75.7,20.2z" fill="#62345B"/></g></g><g><g opacity="0.2"><path d="M61.2,117.5V60.8c0-4.9-1.9-9.5-5.4-12.9c-2.9-2.9-4.4-6.7-4.4-10.7v-4.1c-0.6,1.6-1.6,3.1-2.8,4.4     c-4.6,4.6-7.1,10.7-7.1,17.2V117c0,2.6,0.9,5,2.4,7h10.8C58.3,124,61.2,121.1,61.2,117.5z" fill="#62345B"/></g><g opacity="0.2"><path d="M52.3,20.1c0-0.1,0.1-0.3,0.1-0.4v-4.9c0-0.2-0.1-0.5-0.1-0.7v6.2C52.2,20.2,52.2,20.2,52.3,20.1     C52.3,20.1,52.3,20.1,52.3,20.1z" fill="#62345B"/></g></g><g><g><g><path d="M75.3,122.4H52.7c-3,0-5.4-2.4-5.4-5.4V54.7c0-4.9,1.9-9.6,5.4-13l0,0c3.4-3.4,5.4-8.1,5.4-13V9.4H57V4      h14v5.4h-1.1v19.3c0,4.9,1.9,9.6,5.4,13l0,0c3.4,3.4,5.4,8.1,5.4,13V117C80.7,120,78.3,122.4,75.3,122.4z" fill="#98D1A2"/></g><g><path d="M75.3,122.4H52.7c-3,0-5.4-2.4-5.4-5.4V54.7c0-4.9,1.9-9.6,5.4-13l0,0c3.4-3.4,5.4-8.1,5.4-13v-8.5h11.8      v8.5c0,4.9,1.9,9.6,5.4,13l0,0c3.4,3.4,5.4,8.1,5.4,13V117C80.7,120,78.3,122.4,75.3,122.4z" fill="#E5D283"/></g><g opacity="0.2"><g><path d="M75.3,41.7L75.3,41.7c-3.4-3.4-5.4-8.1-5.4-13V4h-4.3v24.7c0,4.9,0.9,9.6,4.3,13       c3.4,3.4,3.2,8.1,3.2,13V117c0,3-2.4,5.4-5.4,5.4h7.5c3,0,5.4-2.4,5.4-5.4V54.7C80.7,49.8,78.8,45.1,75.3,41.7z" fill="#62345B"/></g></g><g><rect fill="#F16570" height="32.3" width="33.4" x="47.3" y="68.6"/></g><g><path d="M80.7,102.9H47.3c-1.1,0-2-0.9-2-2s0.9-2,2-2h33.4c1.1,0,2,0.9,2,2S81.8,102.9,80.7,102.9z" fill="#62345B"/></g><g><path d="M80.7,70.6H47.3c-1.1,0-2-0.9-2-2s0.9-2,2-2h33.4c1.1,0,2,0.9,2,2S81.8,70.6,80.7,70.6z" fill="#62345B"/></g><g><path d="M75.3,124.4H52.7c-4.1,0-7.4-3.3-7.4-7.4V54.7c0-5.4,2.1-10.6,6-14.4c3.1-3.1,4.8-7.2,4.8-11.6V11.2      c-0.6-0.3-1.1-1-1.1-1.8V4c0-1.1,0.9-2,2-2h14c1.1,0,2,0.9,2,2v5.4c0,0.8-0.4,1.4-1.1,1.8v17.5c0,4.4,1.7,8.5,4.8,11.6      c3.8,3.8,6,9,6,14.4V117C82.7,121.1,79.4,124.4,75.3,124.4z M59,7.6c0.6,0.3,1.1,1,1.1,1.8v19.3c0,5.4-2.1,10.6-6,14.4      c-3.1,3.1-4.8,7.2-4.8,11.6V117c0,1.9,1.5,3.4,3.4,3.4h22.6c1.9,0,3.4-1.5,3.4-3.4V54.7c0-4.4-1.7-8.5-4.8-11.6      c-3.8-3.8-6-9-6-14.4V9.4c0-0.8,0.4-1.4,1.1-1.8V6H59V7.6z" fill="#62345B"/></g><g><path d="M71,11.4H57c-1.1,0-2-0.9-2-2s0.9-2,2-2h14c1.1,0,2,0.9,2,2S72.1,11.4,71,11.4z" fill="#62345B"/></g></g><g><circle cx="59.7" cy="84.7" fill="#FFFFFF" r="2.7"/></g><g><circle cx="68.3" cy="84.7" fill="#FFFFFF" r="2.7"/></g><g><circle cx="64" cy="90.1" fill="#FFFFFF" r="2.7"/></g><g><path d="M64,83.1c-0.3,0-0.5-0.2-0.5-0.5v-4.3c0-0.3,0.2-0.5,0.5-0.5s0.5,0.2,0.5,0.5v4.3     C64.5,82.9,64.3,83.1,64,83.1z" fill="#FFFFFF"/></g></g></g></svg>